<?xml version="1.0" encoding="utf-8"?>
<svg xmlns="http://www.w3.org/2000/svg" viewBox="0 0 56 56" width="56" height="56">
<rect x="5.0" y="5.0" width="46.0" height="46.0" rx="8.0" ry="8.0" fill="#222222"/>
<rect x="5.0" y="5.0" width="46.0" height="46.0" rx="8.0" ry="8.0" fill="none" stroke="#000000" stroke-opacity="0.12" stroke-width="1.0"/>
<g transform="translate(28.0 28.0) scale(1.0350000000000001) translate(-12 -12)" fill="#FFFFFF" fill-rule="evenodd">
<path d="M16 11c1.66 0 2.99-1.34 2.99-3S17.66 5 16 5c-1.66 0-3 1.34-3 3s1.34 3 3 3zm-8 0c1.66 0 2.99-1.34 2.99-3S9.66 5 8 5C6.34 5 5 6.34 5 8s1.34 3 3 3zm0 2c-2.33 0-7 1.17-7 3.5V19h14v-2.5c0-2.33-4.67-3.5-7-3.5zm8 0c-.29 0-.62.02-.97.05 1.16.84 1.97 1.97 1.97 3.45V19h6v-2.5c0-2.33-4.67-3.5-7-3.5z"/>
</g>
</svg>
